<?xml version="1.0" encoding="UTF-8" standalone="no"?>
<!DOCTYPE svg PUBLIC "-//W3C//DTD SVG 1.1//EN"
 "http://www.w3.org/Graphics/SVG/1.1/DTD/svg11.dtd">
<!-- Generated by graphviz version 2.43.0 (0)
 -->
<!-- Title: %3 Pages: 1 -->
<svg width="481pt" height="764pt"
 viewBox="0.00 0.00 481.29 764.00" xmlns="http://www.w3.org/2000/svg" xmlns:xlink="http://www.w3.org/1999/xlink">
<g id="graph0" class="graph" transform="scale(1 1) rotate(0) translate(4 760)">
<title>%3</title>
<polygon fill="white" stroke="transparent" points="-4,4 -4,-760 477.29,-760 477.29,4 -4,4"/>
<!-- (14, (1, 2)) -->
<g id="node1" class="node">
<title>(14, (1, 2))</title>
<ellipse fill="none" stroke="black" cx="237.64" cy="-738" rx="59.59" ry="18"/>
<text text-anchor="middle" x="237.64" y="-734.3" font-family="Times,serif" font-size="14.00">(14, (1, 2))</text>
</g>
<!-- (2, (6, 4)) -->
<g id="node2" class="node">
<title>(2, (6, 4))</title>
<ellipse fill="none" stroke="black" cx="237.64" cy="-666" rx="53.89" ry="18"/>
<text text-anchor="middle" x="237.64" y="-662.3" font-family="Times,serif" font-size="14.00">(2, (6, 4))</text>
</g>
<!-- (14, (1, 2))&#45;&gt;(2, (6, 4)) -->
<g id="edge1" class="edge">
<title>(14, (1, 2))&#45;&gt;(2, (6, 4))</title>
<path fill="none" stroke="black" d="M237.64,-709.67C237.64,-704.69 237.64,-699.49 237.64,-694.51"/>
<polygon fill="black" stroke="black" points="234.14,-709.7 237.64,-719.7 241.14,-709.7 234.14,-709.7"/>
<polygon fill="black" stroke="black" points="241.14,-694.1 237.64,-684.1 234.14,-694.1 241.14,-694.1"/>
</g>
<!-- (20, (6, 6)) -->
<g id="node3" class="node">
<title>(20, (6, 6))</title>
<ellipse fill="none" stroke="black" cx="168.64" cy="-594" rx="59.59" ry="18"/>
<text text-anchor="middle" x="168.64" y="-590.3" font-family="Times,serif" font-size="14.00">(20, (6, 6))</text>
</g>
<!-- (2, (6, 4))&#45;&gt;(20, (6, 6)) -->
<g id="edge2" class="edge">
<title>(2, (6, 4))&#45;&gt;(20, (6, 6))</title>
<path fill="none" stroke="black" d="M214.56,-641.59C207.46,-634.38 199.62,-626.43 192.47,-619.17"/>
<polygon fill="black" stroke="black" points="212.13,-644.1 221.64,-648.76 217.11,-639.19 212.13,-644.1"/>
<polygon fill="black" stroke="black" points="194.55,-616.3 185.04,-611.63 189.57,-621.21 194.55,-616.3"/>
</g>
<!-- (20, (8, 4)) -->
<g id="node4" class="node">
<title>(20, (8, 4))</title>
<ellipse fill="none" stroke="black" cx="309.64" cy="-594" rx="59.59" ry="18"/>
<text text-anchor="middle" x="309.64" y="-590.3" font-family="Times,serif" font-size="14.00">(20, (8, 4))</text>
</g>
<!-- (2, (6, 4))&#45;&gt;(20, (8, 4)) -->
<g id="edge3" class="edge">
<title>(2, (6, 4))&#45;&gt;(20, (8, 4))</title>
<path fill="none" stroke="black" d="M261.73,-641.59C269.3,-634.22 277.66,-626.09 285.26,-618.71"/>
<polygon fill="black" stroke="black" points="259.07,-639.28 254.34,-648.76 263.95,-644.3 259.07,-639.28"/>
<polygon fill="black" stroke="black" points="287.81,-621.11 292.54,-611.63 282.93,-616.09 287.81,-621.11"/>
</g>
<!-- (2, (4, 12)) -->
<g id="node5" class="node">
<title>(2, (4, 12))</title>
<ellipse fill="none" stroke="black" cx="163.64" cy="-522" rx="59.59" ry="18"/>
<text text-anchor="middle" x="163.64" y="-518.3" font-family="Times,serif" font-size="14.00">(2, (4, 12))</text>
</g>
<!-- (20, (6, 6))&#45;&gt;(2, (4, 12)) -->
<g id="edge4" class="edge">
<title>(20, (6, 6))&#45;&gt;(2, (4, 12))</title>
<path fill="none" stroke="black" d="M166.69,-565.67C166.33,-560.55 165.94,-555.21 165.58,-550.1"/>
<polygon fill="black" stroke="black" points="163.2,-565.97 167.41,-575.7 170.19,-565.47 163.2,-565.97"/>
<polygon fill="black" stroke="black" points="169.07,-549.83 164.87,-540.1 162.09,-550.33 169.07,-549.83"/>
</g>
<!-- (2, (14, 6)) -->
<g id="node6" class="node">
<title>(2, (14, 6))</title>
<ellipse fill="none" stroke="black" cx="312.64" cy="-522" rx="59.59" ry="18"/>
<text text-anchor="middle" x="312.64" y="-518.3" font-family="Times,serif" font-size="14.00">(2, (14, 6))</text>
</g>
<!-- (20, (8, 4))&#45;&gt;(2, (14, 6)) -->
<g id="edge5" class="edge">
<title>(20, (8, 4))&#45;&gt;(2, (14, 6))</title>
<path fill="none" stroke="black" d="M310.82,-565.67C311.03,-560.55 311.26,-555.21 311.48,-550.1"/>
<polygon fill="black" stroke="black" points="307.32,-565.56 310.39,-575.7 314.31,-565.86 307.32,-565.56"/>
<polygon fill="black" stroke="black" points="314.98,-550.25 311.91,-540.1 307.99,-549.95 314.98,-550.25"/>
</g>
<!-- (28, (4, 14)) -->
<g id="node7" class="node">
<title>(28, (4, 14))</title>
<ellipse fill="none" stroke="black" cx="65.64" cy="-378" rx="65.79" ry="18"/>
<text text-anchor="middle" x="65.64" y="-374.3" font-family="Times,serif" font-size="14.00">(28, (4, 14))</text>
</g>
<!-- (2, (4, 12))&#45;&gt;(28, (4, 14)) -->
<g id="edge6" class="edge">
<title>(2, (4, 12))&#45;&gt;(28, (4, 14))</title>
<path fill="none" stroke="black" d="M124.8,-501C111.59,-492.45 97.86,-481.35 88.64,-468 76,-449.69 70.31,-424.93 67.74,-406.17"/>
<polygon fill="black" stroke="black" points="122.99,-503.99 133.35,-506.23 126.65,-498.03 122.99,-503.99"/>
<polygon fill="black" stroke="black" points="71.22,-405.72 66.59,-396.18 64.26,-406.52 71.22,-405.72"/>
</g>
<!-- (22, (6, 12)) -->
<g id="node8" class="node">
<title>(22, (6, 12))</title>
<ellipse fill="none" stroke="black" cx="163.64" cy="-450" rx="65.79" ry="18"/>
<text text-anchor="middle" x="163.64" y="-446.3" font-family="Times,serif" font-size="14.00">(22, (6, 12))</text>
</g>
<!-- (2, (4, 12))&#45;&gt;(22, (6, 12)) -->
<g id="edge7" class="edge">
<title>(2, (4, 12))&#45;&gt;(22, (6, 12))</title>
<path fill="none" stroke="black" d="M163.64,-493.67C163.64,-488.69 163.64,-483.49 163.64,-478.51"/>
<polygon fill="black" stroke="black" points="160.14,-493.7 163.64,-503.7 167.14,-493.7 160.14,-493.7"/>
<polygon fill="black" stroke="black" points="167.14,-478.1 163.64,-468.1 160.14,-478.1 167.14,-478.1"/>
</g>
<!-- (10, (14, 8)) -->
<g id="node9" class="node">
<title>(10, (14, 8))</title>
<ellipse fill="none" stroke="black" cx="312.64" cy="-450" rx="65.79" ry="18"/>
<text text-anchor="middle" x="312.64" y="-446.3" font-family="Times,serif" font-size="14.00">(10, (14, 8))</text>
</g>
<!-- (2, (14, 6))&#45;&gt;(10, (14, 8)) -->
<g id="edge8" class="edge">
<title>(2, (14, 6))&#45;&gt;(10, (14, 8))</title>
<path fill="none" stroke="black" d="M312.64,-493.67C312.64,-488.69 312.64,-483.49 312.64,-478.51"/>
<polygon fill="black" stroke="black" points="309.14,-493.7 312.64,-503.7 316.14,-493.7 309.14,-493.7"/>
<polygon fill="black" stroke="black" points="316.14,-478.1 312.64,-468.1 309.14,-478.1 316.14,-478.1"/>
</g>
<!-- (36, (16, 6)) -->
<g id="node10" class="node">
<title>(36, (16, 6))</title>
<ellipse fill="none" stroke="black" cx="407.64" cy="-378" rx="65.79" ry="18"/>
<text text-anchor="middle" x="407.64" y="-374.3" font-family="Times,serif" font-size="14.00">(36, (16, 6))</text>
</g>
<!-- (2, (14, 6))&#45;&gt;(36, (16, 6)) -->
<g id="edge9" class="edge">
<title>(2, (14, 6))&#45;&gt;(36, (16, 6))</title>
<path fill="none" stroke="black" d="M351.72,-501.15C364.95,-492.63 378.64,-481.49 387.64,-468 399.9,-449.63 404.74,-424.88 406.6,-406.14"/>
<polygon fill="black" stroke="black" points="349.87,-498.18 343.15,-506.38 353.51,-504.16 349.87,-498.18"/>
<polygon fill="black" stroke="black" points="410.09,-406.4 407.38,-396.16 403.11,-405.86 410.09,-406.4"/>
</g>
<!-- (2, (12, 22)) -->
<g id="node11" class="node">
<title>(2, (12, 22))</title>
<ellipse fill="none" stroke="black" cx="159.64" cy="-234" rx="65.79" ry="18"/>
<text text-anchor="middle" x="159.64" y="-230.3" font-family="Times,serif" font-size="14.00">(2, (12, 22))</text>
</g>
<!-- (28, (4, 14))&#45;&gt;(2, (12, 22)) -->
<g id="edge10" class="edge">
<title>(28, (4, 14))&#45;&gt;(2, (12, 22))</title>
<path fill="none" stroke="black" d="M64.38,-349.59C64.79,-330.88 67.92,-306.26 79.64,-288 88.58,-274.09 102.61,-262.99 116.45,-254.63"/>
<polygon fill="black" stroke="black" points="60.89,-349.85 64.42,-359.84 67.89,-349.82 60.89,-349.85"/>
<polygon fill="black" stroke="black" points="118.48,-257.5 125.45,-249.52 115.03,-251.41 118.48,-257.5"/>
</g>
<!-- (2, (14, 14)) -->
<g id="node12" class="node">
<title>(2, (14, 14))</title>
<ellipse fill="none" stroke="black" cx="236.64" cy="-378" rx="65.79" ry="18"/>
<text text-anchor="middle" x="236.64" y="-374.3" font-family="Times,serif" font-size="14.00">(2, (14, 14))</text>
</g>
<!-- (22, (6, 12))&#45;&gt;(2, (14, 14)) -->
<g id="edge11" class="edge">
<title>(22, (6, 12))&#45;&gt;(2, (14, 14))</title>
<path fill="none" stroke="black" d="M188.42,-425.24C196.08,-417.89 204.51,-409.81 212.15,-402.49"/>
<polygon fill="black" stroke="black" points="185.74,-422.96 180.94,-432.41 190.58,-428.02 185.74,-422.96"/>
<polygon fill="black" stroke="black" points="214.67,-404.92 219.47,-395.47 209.83,-399.86 214.67,-404.92"/>
</g>
<!-- (10, (14, 8))&#45;&gt;(2, (14, 14)) -->
<g id="edge12" class="edge">
<title>(10, (14, 8))&#45;&gt;(2, (14, 14))</title>
<path fill="none" stroke="black" d="M287.16,-425.53C279.13,-418.13 270.26,-409.96 262.22,-402.56"/>
<polygon fill="black" stroke="black" points="284.91,-428.21 294.63,-432.41 289.65,-423.06 284.91,-428.21"/>
<polygon fill="black" stroke="black" points="264.25,-399.67 254.53,-395.47 259.51,-404.82 264.25,-399.67"/>
</g>
<!-- (2, (20, 14)) -->
<g id="node13" class="node">
<title>(2, (20, 14))</title>
<ellipse fill="none" stroke="black" cx="314.64" cy="-234" rx="65.79" ry="18"/>
<text text-anchor="middle" x="314.64" y="-230.3" font-family="Times,serif" font-size="14.00">(2, (20, 14))</text>
</g>
<!-- (36, (16, 6))&#45;&gt;(2, (20, 14)) -->
<g id="edge13" class="edge">
<title>(36, (16, 6))&#45;&gt;(2, (20, 14))</title>
<path fill="none" stroke="black" d="M407.29,-349.63C405.87,-330.94 401.59,-306.33 389.64,-288 381.01,-274.76 367.82,-263.83 354.9,-255.4"/>
<polygon fill="black" stroke="black" points="403.81,-350.06 407.83,-359.86 410.8,-349.69 403.81,-350.06"/>
<polygon fill="black" stroke="black" points="356.4,-252.22 346.05,-249.97 352.74,-258.18 356.4,-252.22"/>
</g>
<!-- (8, (14, 22)) -->
<g id="node14" class="node">
<title>(8, (14, 22))</title>
<ellipse fill="none" stroke="black" cx="161.64" cy="-162" rx="65.79" ry="18"/>
<text text-anchor="middle" x="161.64" y="-158.3" font-family="Times,serif" font-size="14.00">(8, (14, 22))</text>
</g>
<!-- (2, (12, 22))&#45;&gt;(8, (14, 22)) -->
<g id="edge14" class="edge">
<title>(2, (12, 22))&#45;&gt;(8, (14, 22))</title>
<path fill="none" stroke="black" d="M160.43,-205.67C160.57,-200.55 160.72,-195.21 160.87,-190.1"/>
<polygon fill="black" stroke="black" points="156.93,-205.6 160.14,-215.7 163.92,-205.8 156.93,-205.6"/>
<polygon fill="black" stroke="black" points="164.37,-190.2 161.16,-180.1 157.37,-190 164.37,-190.2"/>
</g>
<!-- (16, (14, 16)) -->
<g id="node15" class="node">
<title>(16, (14, 16))</title>
<ellipse fill="none" stroke="black" cx="159.64" cy="-306" rx="71.49" ry="18"/>
<text text-anchor="middle" x="159.64" y="-302.3" font-family="Times,serif" font-size="14.00">(16, (14, 16))</text>
</g>
<!-- (2, (14, 14))&#45;&gt;(16, (14, 16)) -->
<g id="edge15" class="edge">
<title>(2, (14, 14))&#45;&gt;(16, (14, 16))</title>
<path fill="none" stroke="black" d="M210.82,-353.53C202.6,-346.05 193.51,-337.79 185.3,-330.33"/>
<polygon fill="black" stroke="black" points="208.64,-356.27 218.4,-360.41 213.35,-351.09 208.64,-356.27"/>
<polygon fill="black" stroke="black" points="187.51,-327.61 177.76,-323.47 182.81,-332.79 187.51,-327.61"/>
</g>
<!-- (8, (16, 14)) -->
<g id="node16" class="node">
<title>(8, (16, 14))</title>
<ellipse fill="none" stroke="black" cx="314.64" cy="-306" rx="65.79" ry="18"/>
<text text-anchor="middle" x="314.64" y="-302.3" font-family="Times,serif" font-size="14.00">(8, (16, 14))</text>
</g>
<!-- (2, (14, 14))&#45;&gt;(8, (16, 14)) -->
<g id="edge16" class="edge">
<title>(2, (14, 14))&#45;&gt;(8, (16, 14))</title>
<path fill="none" stroke="black" d="M262.8,-353.53C271.13,-346.05 280.33,-337.79 288.65,-330.33"/>
<polygon fill="black" stroke="black" points="260.23,-351.13 255.13,-360.41 264.91,-356.34 260.23,-351.13"/>
<polygon fill="black" stroke="black" points="291.19,-332.75 296.29,-323.47 286.51,-327.54 291.19,-332.75"/>
</g>
<!-- (8, (20, 16)) -->
<g id="node17" class="node">
<title>(8, (20, 16))</title>
<ellipse fill="none" stroke="black" cx="313.64" cy="-162" rx="65.79" ry="18"/>
<text text-anchor="middle" x="313.64" y="-158.3" font-family="Times,serif" font-size="14.00">(8, (20, 16))</text>
</g>
<!-- (2, (20, 14))&#45;&gt;(8, (20, 16)) -->
<g id="edge17" class="edge">
<title>(2, (20, 14))&#45;&gt;(8, (20, 16))</title>
<path fill="none" stroke="black" d="M314.25,-205.67C314.18,-200.55 314.1,-195.21 314.03,-190.1"/>
<polygon fill="black" stroke="black" points="310.75,-205.75 314.4,-215.7 317.75,-205.65 310.75,-205.75"/>
<polygon fill="black" stroke="black" points="317.53,-190.05 313.89,-180.1 310.53,-190.15 317.53,-190.05"/>
</g>
<!-- (2, (20, 20)) -->
<g id="node18" class="node">
<title>(2, (20, 20))</title>
<ellipse fill="none" stroke="black" cx="235.64" cy="-90" rx="65.79" ry="18"/>
<text text-anchor="middle" x="235.64" y="-86.3" font-family="Times,serif" font-size="14.00">(2, (20, 20))</text>
</g>
<!-- (8, (14, 22))&#45;&gt;(2, (20, 20)) -->
<g id="edge18" class="edge">
<title>(8, (14, 22))&#45;&gt;(2, (20, 20))</title>
<path fill="none" stroke="black" d="M186.46,-137.53C194.28,-130.13 202.91,-121.96 210.74,-114.56"/>
<polygon fill="black" stroke="black" points="184.04,-135 179.18,-144.41 188.85,-140.08 184.04,-135"/>
<polygon fill="black" stroke="black" points="213.37,-116.88 218.23,-107.47 208.56,-111.8 213.37,-116.88"/>
</g>
<!-- (16, (14, 16))&#45;&gt;(2, (12, 22)) -->
<g id="edge19" class="edge">
<title>(16, (14, 16))&#45;&gt;(2, (12, 22))</title>
<path fill="none" stroke="black" d="M159.64,-277.67C159.64,-272.69 159.64,-267.49 159.64,-262.51"/>
<polygon fill="black" stroke="black" points="156.14,-277.7 159.64,-287.7 163.14,-277.7 156.14,-277.7"/>
<polygon fill="black" stroke="black" points="163.14,-262.1 159.64,-252.1 156.14,-262.1 163.14,-262.1"/>
</g>
<!-- (8, (16, 14))&#45;&gt;(2, (20, 14)) -->
<g id="edge20" class="edge">
<title>(8, (16, 14))&#45;&gt;(2, (20, 14))</title>
<path fill="none" stroke="black" d="M314.64,-277.67C314.64,-272.69 314.64,-267.49 314.64,-262.51"/>
<polygon fill="black" stroke="black" points="311.14,-277.7 314.64,-287.7 318.14,-277.7 311.14,-277.7"/>
<polygon fill="black" stroke="black" points="318.14,-262.1 314.64,-252.1 311.14,-262.1 318.14,-262.1"/>
</g>
<!-- (8, (20, 16))&#45;&gt;(2, (20, 20)) -->
<g id="edge21" class="edge">
<title>(8, (20, 16))&#45;&gt;(2, (20, 20))</title>
<path fill="none" stroke="black" d="M287.49,-137.53C279.16,-130.05 269.95,-121.79 261.64,-114.33"/>
<polygon fill="black" stroke="black" points="285.38,-140.34 295.16,-144.41 290.05,-135.13 285.38,-140.34"/>
<polygon fill="black" stroke="black" points="263.78,-111.54 254,-107.47 259.1,-116.75 263.78,-111.54"/>
</g>
<!-- (5, (22, 20)) -->
<g id="node19" class="node">
<title>(5, (22, 20))</title>
<ellipse fill="none" stroke="black" cx="235.64" cy="-18" rx="65.79" ry="18"/>
<text text-anchor="middle" x="235.64" y="-14.3" font-family="Times,serif" font-size="14.00">(5, (22, 20))</text>
</g>
<!-- (2, (20, 20))&#45;&gt;(5, (22, 20)) -->
<g id="edge22" class="edge">
<title>(2, (20, 20))&#45;&gt;(5, (22, 20))</title>
<path fill="none" stroke="black" d="M235.64,-61.67C235.64,-56.69 235.64,-51.49 235.64,-46.51"/>
<polygon fill="black" stroke="black" points="232.14,-61.7 235.64,-71.7 239.14,-61.7 232.14,-61.7"/>
<polygon fill="black" stroke="black" points="239.14,-46.1 235.64,-36.1 232.14,-46.1 239.14,-46.1"/>
</g>
</g>
</svg>
