<?xml version="1.0" encoding="UTF-8" standalone="no"?>
<!DOCTYPE svg PUBLIC "-//W3C//DTD SVG 1.1//EN"
 "http://www.w3.org/Graphics/SVG/1.1/DTD/svg11.dtd">
<!-- Generated by graphviz version 2.43.0 (0)
 -->
<!-- Title: %3 Pages: 1 -->
<svg width="387pt" height="404pt"
 viewBox="0.00 0.00 387.31 404.00" xmlns="http://www.w3.org/2000/svg" xmlns:xlink="http://www.w3.org/1999/xlink">
<g id="graph0" class="graph" transform="scale(1 1) rotate(0) translate(4 400)">
<title>%3</title>
<polygon fill="white" stroke="transparent" points="-4,4 -4,-400 383.31,-400 383.31,4 -4,4"/>
<!-- jqt -->
<g id="node1" class="node">
<title>jqt</title>
<ellipse fill="#ccffff" stroke="black" cx="66.3" cy="-306" rx="27" ry="18"/>
<text text-anchor="middle" x="66.3" y="-302.3" font-family="Times,serif" font-size="14.00">jqt</text>
</g>
<!-- rhn -->
<g id="node2" class="node">
<title>rhn</title>
<ellipse fill="#ccffff" stroke="black" cx="66.3" cy="-234" rx="27" ry="18"/>
<text text-anchor="middle" x="66.3" y="-230.3" font-family="Times,serif" font-size="14.00">rhn</text>
</g>
<!-- jqt&#45;&gt;rhn -->
<g id="edge1" class="edge">
<title>jqt&#45;&gt;rhn</title>
<path fill="none" stroke="black" d="M66.3,-287.7C66.3,-279.98 66.3,-270.71 66.3,-262.11"/>
<polygon fill="black" stroke="black" points="69.8,-262.1 66.3,-252.1 62.8,-262.1 69.8,-262.1"/>
</g>
<!-- xhk -->
<g id="node3" class="node">
<title>xhk</title>
<ellipse fill="#ccffff" stroke="black" cx="27.3" cy="-90" rx="27.1" ry="18"/>
<text text-anchor="middle" x="27.3" y="-86.3" font-family="Times,serif" font-size="14.00">xhk</text>
</g>
<!-- jqt&#45;&gt;xhk -->
<g id="edge2" class="edge">
<title>jqt&#45;&gt;xhk</title>
<path fill="none" stroke="black" d="M55.07,-289.62C48.32,-279.48 40.29,-265.59 36.3,-252 22.98,-206.63 23.32,-151.04 25.09,-118.47"/>
<polygon fill="black" stroke="black" points="28.59,-118.56 25.73,-108.35 21.61,-118.11 28.59,-118.56"/>
</g>
<!-- nvd -->
<g id="node4" class="node">
<title>nvd</title>
<ellipse fill="#ccffff" stroke="black" cx="223.3" cy="-90" rx="27.9" ry="18"/>
<text text-anchor="middle" x="223.3" y="-86.3" font-family="Times,serif" font-size="14.00">nvd</text>
</g>
<!-- jqt&#45;&gt;nvd -->
<g id="edge3" class="edge">
<title>jqt&#45;&gt;nvd</title>
<path fill="none" stroke="black" d="M77.59,-289.61C104.68,-252.68 173.52,-158.85 205.93,-114.68"/>
<polygon fill="black" stroke="black" points="208.8,-116.67 211.9,-106.54 203.16,-112.53 208.8,-116.67"/>
</g>
<!-- rhn&#45;&gt;xhk -->
<g id="edge12" class="edge">
<title>rhn&#45;&gt;xhk</title>
<path fill="none" stroke="black" d="M61.67,-216.15C54.99,-191.81 42.56,-146.57 34.62,-117.67"/>
<polygon fill="black" stroke="black" points="37.94,-116.54 31.92,-107.82 31.19,-118.39 37.94,-116.54"/>
</g>
<!-- hfx -->
<g id="node9" class="node">
<title>hfx</title>
<ellipse fill="none" stroke="black" cx="102.3" cy="-18" rx="27" ry="18"/>
<text text-anchor="middle" x="102.3" y="-14.3" font-family="Times,serif" font-size="14.00">hfx</text>
</g>
<!-- rhn&#45;&gt;hfx -->
<g id="edge14" class="edge">
<title>rhn&#45;&gt;hfx</title>
<path fill="none" stroke="black" d="M66.31,-215.84C66.55,-197.85 67.56,-168.79 71.3,-144 76.49,-109.57 86.84,-70.76 94.15,-45.65"/>
<polygon fill="black" stroke="black" points="97.59,-46.36 97.07,-35.78 90.87,-44.38 97.59,-46.36"/>
</g>
<!-- bvb -->
<g id="node13" class="node">
<title>bvb</title>
<ellipse fill="#ccffff" stroke="black" cx="102.3" cy="-162" rx="27.9" ry="18"/>
<text text-anchor="middle" x="102.3" y="-158.3" font-family="Times,serif" font-size="14.00">bvb</text>
</g>
<!-- rhn&#45;&gt;bvb -->
<g id="edge13" class="edge">
<title>rhn&#45;&gt;bvb</title>
<path fill="none" stroke="black" d="M74.65,-216.76C78.95,-208.4 84.29,-198.02 89.13,-188.61"/>
<polygon fill="black" stroke="black" points="92.28,-190.13 93.74,-179.63 86.06,-186.93 92.28,-190.13"/>
</g>
<!-- xhk&#45;&gt;hfx -->
<g id="edge7" class="edge">
<title>xhk&#45;&gt;hfx</title>
<path fill="none" stroke="black" d="M42.47,-74.83C53.15,-64.87 67.62,-51.37 79.65,-40.14"/>
<polygon fill="black" stroke="black" points="82.22,-42.53 87.14,-33.14 77.44,-37.41 82.22,-42.53"/>
</g>
<!-- lhk -->
<g id="node12" class="node">
<title>lhk</title>
<ellipse fill="none" stroke="black" cx="250.3" cy="-18" rx="27" ry="18"/>
<text text-anchor="middle" x="250.3" y="-14.3" font-family="Times,serif" font-size="14.00">lhk</text>
</g>
<!-- nvd&#45;&gt;lhk -->
<g id="edge25" class="edge">
<title>nvd&#45;&gt;lhk</title>
<path fill="none" stroke="black" d="M229.7,-72.41C232.81,-64.34 236.63,-54.43 240.13,-45.35"/>
<polygon fill="black" stroke="black" points="243.42,-46.55 243.76,-35.96 236.89,-44.03 243.42,-46.55"/>
</g>
<!-- rsh -->
<g id="node5" class="node">
<title>rsh</title>
<ellipse fill="#ccffff" stroke="black" cx="309.3" cy="-306" rx="27" ry="18"/>
<text text-anchor="middle" x="309.3" y="-302.3" font-family="Times,serif" font-size="14.00">rsh</text>
</g>
<!-- frs -->
<g id="node6" class="node">
<title>frs</title>
<ellipse fill="#ccffff" stroke="black" cx="278.3" cy="-234" rx="27" ry="18"/>
<text text-anchor="middle" x="278.3" y="-230.3" font-family="Times,serif" font-size="14.00">frs</text>
</g>
<!-- rsh&#45;&gt;frs -->
<g id="edge4" class="edge">
<title>rsh&#45;&gt;frs</title>
<path fill="none" stroke="black" d="M301.95,-288.41C298.28,-280.13 293.76,-269.92 289.66,-260.66"/>
<polygon fill="black" stroke="black" points="292.84,-259.2 285.59,-251.47 286.44,-262.03 292.84,-259.2"/>
</g>
<!-- pzl -->
<g id="node7" class="node">
<title>pzl</title>
<ellipse fill="#ccffff" stroke="black" cx="339.3" cy="-234" rx="27" ry="18"/>
<text text-anchor="middle" x="339.3" y="-230.3" font-family="Times,serif" font-size="14.00">pzl</text>
</g>
<!-- rsh&#45;&gt;pzl -->
<g id="edge5" class="edge">
<title>rsh&#45;&gt;pzl</title>
<path fill="none" stroke="black" d="M316.41,-288.41C319.96,-280.13 324.33,-269.92 328.3,-260.66"/>
<polygon fill="black" stroke="black" points="331.52,-262.04 332.24,-251.47 325.08,-259.28 331.52,-262.04"/>
</g>
<!-- lsr -->
<g id="node8" class="node">
<title>lsr</title>
<ellipse fill="#ccffff" stroke="black" cx="345.3" cy="-162" rx="27" ry="18"/>
<text text-anchor="middle" x="345.3" y="-158.3" font-family="Times,serif" font-size="14.00">lsr</text>
</g>
<!-- rsh&#45;&gt;lsr -->
<g id="edge6" class="edge">
<title>rsh&#45;&gt;lsr</title>
<path fill="none" stroke="black" d="M329.27,-293.73C343.36,-284.53 361.13,-270.12 369.3,-252 378.71,-231.13 370.11,-205.79 360.68,-187.5"/>
<polygon fill="black" stroke="black" points="363.68,-185.68 355.77,-178.63 357.56,-189.07 363.68,-185.68"/>
</g>
<!-- frs&#45;&gt;lsr -->
<g id="edge33" class="edge">
<title>frs&#45;&gt;lsr</title>
<path fill="none" stroke="black" d="M292.18,-218.5C301.43,-208.83 313.77,-195.94 324.22,-185.02"/>
<polygon fill="black" stroke="black" points="327.05,-187.13 331.43,-177.49 321.99,-182.29 327.05,-187.13"/>
</g>
<!-- qnr -->
<g id="node11" class="node">
<title>qnr</title>
<ellipse fill="#ccffff" stroke="black" cx="239.3" cy="-162" rx="27" ry="18"/>
<text text-anchor="middle" x="239.3" y="-158.3" font-family="Times,serif" font-size="14.00">qnr</text>
</g>
<!-- frs&#45;&gt;qnr -->
<g id="edge31" class="edge">
<title>frs&#45;&gt;qnr</title>
<path fill="none" stroke="black" d="M269.25,-216.76C264.48,-208.19 258.52,-197.49 253.17,-187.9"/>
<polygon fill="black" stroke="black" points="256.22,-186.18 248.29,-179.15 250.1,-189.59 256.22,-186.18"/>
</g>
<!-- frs&#45;&gt;lhk -->
<g id="edge32" class="edge">
<title>frs&#45;&gt;lhk</title>
<path fill="none" stroke="black" d="M276.83,-215.91C275.22,-197.97 272.45,-168.96 269.3,-144 265.01,-110.08 258.9,-71.17 254.78,-45.89"/>
<polygon fill="black" stroke="black" points="258.22,-45.25 253.15,-35.95 251.32,-46.38 258.22,-45.25"/>
</g>
<!-- pzl&#45;&gt;nvd -->
<g id="edge19" class="edge">
<title>pzl&#45;&gt;nvd</title>
<path fill="none" stroke="black" d="M327.88,-217.64C314.43,-199.71 291.27,-169.28 270.3,-144 261.92,-133.9 252.35,-123.01 244.05,-113.74"/>
<polygon fill="black" stroke="black" points="246.44,-111.16 237.14,-106.07 241.24,-115.85 246.44,-111.16"/>
</g>
<!-- pzl&#45;&gt;lsr -->
<g id="edge17" class="edge">
<title>pzl&#45;&gt;lsr</title>
<path fill="none" stroke="black" d="M340.78,-215.7C341.44,-207.98 342.24,-198.71 342.97,-190.11"/>
<polygon fill="black" stroke="black" points="346.46,-190.37 343.83,-180.1 339.49,-189.77 346.46,-190.37"/>
</g>
<!-- pzl&#45;&gt;hfx -->
<g id="edge18" class="edge">
<title>pzl&#45;&gt;hfx</title>
<path fill="none" stroke="black" d="M331.44,-216.5C312.78,-177.57 266.46,-82.46 254.3,-72 221.32,-43.64 172.25,-30.17 138.85,-23.97"/>
<polygon fill="black" stroke="black" points="139.04,-20.45 128.6,-22.2 137.86,-27.35 139.04,-20.45"/>
</g>
<!-- lsr&#45;&gt;lhk -->
<g id="edge26" class="edge">
<title>lsr&#45;&gt;lhk</title>
<path fill="none" stroke="black" d="M334.77,-145.26C318.22,-120.52 286,-72.37 266.49,-43.2"/>
<polygon fill="black" stroke="black" points="269.34,-41.17 260.87,-34.81 263.53,-45.07 269.34,-41.17"/>
</g>
<!-- cmg -->
<g id="node10" class="node">
<title>cmg</title>
<ellipse fill="#ccffff" stroke="black" cx="198.3" cy="-234" rx="30.59" ry="18"/>
<text text-anchor="middle" x="198.3" y="-230.3" font-family="Times,serif" font-size="14.00">cmg</text>
</g>
<!-- cmg&#45;&gt;nvd -->
<g id="edge9" class="edge">
<title>cmg&#45;&gt;nvd</title>
<path fill="none" stroke="black" d="M199.72,-215.83C201.38,-197.83 204.52,-168.76 209.3,-144 210.95,-135.46 213.2,-126.26 215.42,-117.96"/>
<polygon fill="black" stroke="black" points="218.87,-118.62 218.17,-108.05 212.12,-116.75 218.87,-118.62"/>
</g>
<!-- cmg&#45;&gt;qnr -->
<g id="edge8" class="edge">
<title>cmg&#45;&gt;qnr</title>
<path fill="none" stroke="black" d="M207.81,-216.76C212.83,-208.19 219.09,-197.49 224.71,-187.9"/>
<polygon fill="black" stroke="black" points="227.81,-189.55 229.84,-179.15 221.77,-186.01 227.81,-189.55"/>
</g>
<!-- cmg&#45;&gt;lhk -->
<g id="edge10" class="edge">
<title>cmg&#45;&gt;lhk</title>
<path fill="none" stroke="black" d="M193.03,-216.11C184.55,-185.76 170.86,-120.63 192.3,-72 198.58,-57.74 210.81,-45.65 222.43,-36.63"/>
<polygon fill="black" stroke="black" points="224.66,-39.34 230.68,-30.63 220.54,-33.68 224.66,-39.34"/>
</g>
<!-- cmg&#45;&gt;bvb -->
<g id="edge11" class="edge">
<title>cmg&#45;&gt;bvb</title>
<path fill="none" stroke="black" d="M179.79,-219.5C165.26,-208.91 144.85,-194.03 128.62,-182.2"/>
<polygon fill="black" stroke="black" points="130.24,-179.05 120.1,-175.98 126.12,-184.7 130.24,-179.05"/>
</g>
<!-- qnr&#45;&gt;nvd -->
<g id="edge20" class="edge">
<title>qnr&#45;&gt;nvd</title>
<path fill="none" stroke="black" d="M235.42,-144.05C233.64,-136.26 231.49,-126.82 229.49,-118.08"/>
<polygon fill="black" stroke="black" points="232.89,-117.24 227.25,-108.28 226.06,-118.8 232.89,-117.24"/>
</g>
<!-- bvb&#45;&gt;xhk -->
<g id="edge15" class="edge">
<title>bvb&#45;&gt;xhk</title>
<path fill="none" stroke="black" d="M87.12,-146.83C76.45,-136.87 61.98,-123.37 49.94,-112.14"/>
<polygon fill="black" stroke="black" points="52.15,-109.41 42.45,-105.14 47.37,-114.53 52.15,-109.41"/>
</g>
<!-- bvb&#45;&gt;hfx -->
<g id="edge16" class="edge">
<title>bvb&#45;&gt;hfx</title>
<path fill="none" stroke="black" d="M102.3,-143.87C102.3,-119.67 102.3,-75.21 102.3,-46.39"/>
<polygon fill="black" stroke="black" points="105.8,-46.19 102.3,-36.19 98.8,-46.19 105.8,-46.19"/>
</g>
<!-- ntq -->
<g id="node14" class="node">
<title>ntq</title>
<ellipse fill="#ccffff" stroke="black" cx="85.3" cy="-378" rx="27" ry="18"/>
<text text-anchor="middle" x="85.3" y="-374.3" font-family="Times,serif" font-size="14.00">ntq</text>
</g>
<!-- ntq&#45;&gt;jqt -->
<g id="edge21" class="edge">
<title>ntq&#45;&gt;jqt</title>
<path fill="none" stroke="black" d="M80.7,-360.05C78.55,-352.14 75.94,-342.54 73.54,-333.69"/>
<polygon fill="black" stroke="black" points="76.85,-332.52 70.85,-323.79 70.1,-334.36 76.85,-332.52"/>
</g>
<!-- ntq&#45;&gt;xhk -->
<g id="edge24" class="edge">
<title>ntq&#45;&gt;xhk</title>
<path fill="none" stroke="black" d="M68.31,-363.59C57.26,-353.86 43.59,-339.68 36.3,-324 4.46,-255.53 14.24,-163.12 21.89,-118.03"/>
<polygon fill="black" stroke="black" points="25.35,-118.59 23.67,-108.13 18.46,-117.35 25.35,-118.59"/>
</g>
<!-- ntq&#45;&gt;hfx -->
<g id="edge22" class="edge">
<title>ntq&#45;&gt;hfx</title>
<path fill="none" stroke="black" d="M96.09,-361.19C112.37,-335.79 141.3,-283.76 141.3,-235 141.3,-235 141.3,-235 141.3,-161 141.3,-119.33 125.49,-73.16 114,-45.11"/>
<polygon fill="black" stroke="black" points="117.12,-43.49 110,-35.64 110.67,-46.22 117.12,-43.49"/>
</g>
<!-- ntq&#45;&gt;bvb -->
<g id="edge23" class="edge">
<title>ntq&#45;&gt;bvb</title>
<path fill="none" stroke="black" d="M89.6,-359.93C92.01,-349.61 94.82,-336.13 96.3,-324 101.94,-277.55 102.77,-223.06 102.67,-190.87"/>
<polygon fill="black" stroke="black" points="106.17,-190.44 102.6,-180.47 99.17,-190.49 106.17,-190.44"/>
</g>
<!-- rzs -->
<g id="node15" class="node">
<title>rzs</title>
<ellipse fill="#ccffff" stroke="black" cx="274.3" cy="-378" rx="27" ry="18"/>
<text text-anchor="middle" x="274.3" y="-374.3" font-family="Times,serif" font-size="14.00">rzs</text>
</g>
<!-- rzs&#45;&gt;rsh -->
<g id="edge30" class="edge">
<title>rzs&#45;&gt;rsh</title>
<path fill="none" stroke="black" d="M282.42,-360.76C286.6,-352.4 291.79,-342.02 296.49,-332.61"/>
<polygon fill="black" stroke="black" points="299.64,-334.14 300.98,-323.63 293.38,-331.01 299.64,-334.14"/>
</g>
<!-- rzs&#45;&gt;lsr -->
<g id="edge29" class="edge">
<title>rzs&#45;&gt;lsr</title>
<path fill="none" stroke="black" d="M293.22,-365.1C307.52,-355.38 326.92,-340.58 340.3,-324 362.76,-296.16 368.08,-286.82 376.3,-252 379.97,-236.43 380.48,-231.44 376.3,-216 373.52,-205.77 368.23,-195.49 362.79,-186.74"/>
<polygon fill="black" stroke="black" points="365.6,-184.65 357.16,-178.24 359.76,-188.52 365.6,-184.65"/>
</g>
<!-- rzs&#45;&gt;cmg -->
<g id="edge28" class="edge">
<title>rzs&#45;&gt;cmg</title>
<path fill="none" stroke="black" d="M261.66,-361.9C253.47,-351.64 242.94,-337.53 235.3,-324 223.96,-303.93 214.11,-279.7 207.43,-261.59"/>
<polygon fill="black" stroke="black" points="210.65,-260.19 203.97,-251.96 204.06,-262.56 210.65,-260.19"/>
</g>
<!-- rzs&#45;&gt;qnr -->
<g id="edge27" class="edge">
<title>rzs&#45;&gt;qnr</title>
<path fill="none" stroke="black" d="M270.2,-360.12C264.53,-336.19 254.31,-290.99 248.3,-252 245.12,-231.41 242.8,-207.96 241.32,-190.3"/>
<polygon fill="black" stroke="black" points="244.79,-189.82 240.5,-180.13 237.81,-190.38 244.79,-189.82"/>
</g>
</g>
</svg>
