<?xml version="1.0" encoding="UTF-8" standalone="no"?>
<!DOCTYPE svg PUBLIC "-//W3C//DTD SVG 1.1//EN"
 "http://www.w3.org/Graphics/SVG/1.1/DTD/svg11.dtd">
<!-- Generated by graphviz version 2.43.0 (0)
 -->
<!-- Title: %3 Pages: 1 -->
<svg width="365pt" height="404pt"
 viewBox="0.00 0.00 364.95 404.00" xmlns="http://www.w3.org/2000/svg" xmlns:xlink="http://www.w3.org/1999/xlink">
<g id="graph0" class="graph" transform="scale(1 1) rotate(0) translate(4 400)">
<title>%3</title>
<polygon fill="white" stroke="transparent" points="-4,4 -4,-400 360.95,-400 360.95,4 -4,4"/>
<!-- jqt -->
<g id="node1" class="node">
<title>jqt</title>
<ellipse fill="#ccffff" stroke="black" cx="143" cy="-306" rx="27" ry="18"/>
<text text-anchor="middle" x="143" y="-302.3" font-family="Times,serif" font-size="14.00">jqt</text>
</g>
<!-- rsh -->
<g id="node2" class="node">
<title>rsh</title>
<ellipse fill="#ccffff" stroke="black" cx="241" cy="-306" rx="27" ry="18"/>
<text text-anchor="middle" x="241" y="-302.3" font-family="Times,serif" font-size="14.00">rsh</text>
</g>
<!-- frs -->
<g id="node3" class="node">
<title>frs</title>
<ellipse fill="#ccffff" stroke="black" cx="310" cy="-234" rx="27" ry="18"/>
<text text-anchor="middle" x="310" y="-230.3" font-family="Times,serif" font-size="14.00">frs</text>
</g>
<!-- rsh&#45;&gt;frs -->
<g id="edge1" class="edge">
<title>rsh&#45;&gt;frs</title>
<path fill="none" stroke="black" d="M255.3,-290.5C264.92,-280.73 277.78,-267.69 288.61,-256.7"/>
<polygon fill="black" stroke="black" points="291.19,-259.06 295.72,-249.49 286.21,-254.15 291.19,-259.06"/>
</g>
<!-- pzl -->
<g id="node4" class="node">
<title>pzl</title>
<ellipse fill="#ccffff" stroke="black" cx="249" cy="-234" rx="27" ry="18"/>
<text text-anchor="middle" x="249" y="-230.3" font-family="Times,serif" font-size="14.00">pzl</text>
</g>
<!-- rsh&#45;&gt;pzl -->
<g id="edge2" class="edge">
<title>rsh&#45;&gt;pzl</title>
<path fill="none" stroke="black" d="M242.98,-287.7C243.86,-279.98 244.92,-270.71 245.9,-262.11"/>
<polygon fill="black" stroke="black" points="249.39,-262.44 247.05,-252.1 242.43,-261.64 249.39,-262.44"/>
</g>
<!-- lsr -->
<g id="node5" class="node">
<title>lsr</title>
<ellipse fill="#ccffff" stroke="black" cx="222" cy="-162" rx="27" ry="18"/>
<text text-anchor="middle" x="222" y="-158.3" font-family="Times,serif" font-size="14.00">lsr</text>
</g>
<!-- rsh&#45;&gt;lsr -->
<g id="edge3" class="edge">
<title>rsh&#45;&gt;lsr</title>
<path fill="none" stroke="black" d="M232.32,-288.82C227.34,-278.59 221.57,-264.9 219,-252 214.9,-231.44 215.99,-207.68 217.92,-189.89"/>
<polygon fill="black" stroke="black" points="221.39,-190.27 219.15,-179.92 214.45,-189.41 221.39,-190.27"/>
</g>
<!-- frs&#45;&gt;lsr -->
<g id="edge23" class="edge">
<title>frs&#45;&gt;lsr</title>
<path fill="none" stroke="black" d="M293.03,-219.5C279.92,-209.08 261.59,-194.49 246.83,-182.75"/>
<polygon fill="black" stroke="black" points="248.62,-179.7 238.62,-176.22 244.26,-185.18 248.62,-179.7"/>
</g>
<!-- qnr -->
<g id="node11" class="node">
<title>qnr</title>
<ellipse fill="#ccffff" stroke="black" cx="329" cy="-162" rx="27" ry="18"/>
<text text-anchor="middle" x="329" y="-158.3" font-family="Times,serif" font-size="14.00">qnr</text>
</g>
<!-- frs&#45;&gt;qnr -->
<g id="edge21" class="edge">
<title>frs&#45;&gt;qnr</title>
<path fill="none" stroke="black" d="M314.6,-216.05C316.75,-208.14 319.35,-198.54 321.76,-189.69"/>
<polygon fill="black" stroke="black" points="325.2,-190.36 324.44,-179.79 318.45,-188.52 325.2,-190.36"/>
</g>
<!-- lhk -->
<g id="node14" class="node">
<title>lhk</title>
<ellipse fill="none" stroke="black" cx="290" cy="-18" rx="27" ry="18"/>
<text text-anchor="middle" x="290" y="-14.3" font-family="Times,serif" font-size="14.00">lhk</text>
</g>
<!-- frs&#45;&gt;lhk -->
<g id="edge22" class="edge">
<title>frs&#45;&gt;lhk</title>
<path fill="none" stroke="black" d="M305.78,-215.92C303.4,-205.59 300.59,-192.11 299,-180 292.92,-133.57 290.94,-79.07 290.3,-46.88"/>
<polygon fill="black" stroke="black" points="293.79,-46.41 290.13,-36.47 286.8,-46.53 293.79,-46.41"/>
</g>
<!-- lsr&#45;&gt;lhk -->
<g id="edge16" class="edge">
<title>lsr&#45;&gt;lhk</title>
<path fill="none" stroke="black" d="M229.8,-144.71C241.52,-120.23 263.79,-73.74 277.71,-44.67"/>
<polygon fill="black" stroke="black" points="280.92,-46.07 282.08,-35.54 274.61,-43.04 280.92,-46.07"/>
</g>
<!-- xhk -->
<g id="node6" class="node">
<title>xhk</title>
<ellipse fill="#ccffff" stroke="black" cx="85" cy="-234" rx="27.1" ry="18"/>
<text text-anchor="middle" x="85" y="-230.3" font-family="Times,serif" font-size="14.00">xhk</text>
</g>
<!-- hfx -->
<g id="node7" class="node">
<title>hfx</title>
<ellipse fill="none" stroke="black" cx="66" cy="-162" rx="27" ry="18"/>
<text text-anchor="middle" x="66" y="-158.3" font-family="Times,serif" font-size="14.00">hfx</text>
</g>
<!-- xhk&#45;&gt;hfx -->
<g id="edge4" class="edge">
<title>xhk&#45;&gt;hfx</title>
<path fill="none" stroke="black" d="M80.4,-216.05C78.25,-208.14 75.65,-198.54 73.24,-189.69"/>
<polygon fill="black" stroke="black" points="76.55,-188.52 70.56,-179.79 69.8,-190.36 76.55,-188.52"/>
</g>
<!-- cmg -->
<g id="node8" class="node">
<title>cmg</title>
<ellipse fill="#ccffff" stroke="black" cx="306" cy="-306" rx="30.59" ry="18"/>
<text text-anchor="middle" x="306" y="-302.3" font-family="Times,serif" font-size="14.00">cmg</text>
</g>
<!-- rhn -->
<g id="node9" class="node">
<title>rhn</title>
<ellipse fill="#ccffff" stroke="black" cx="27" cy="-378" rx="27" ry="18"/>
<text text-anchor="middle" x="27" y="-374.3" font-family="Times,serif" font-size="14.00">rhn</text>
</g>
<!-- rhn&#45;&gt;xhk -->
<g id="edge5" class="edge">
<title>rhn&#45;&gt;xhk</title>
<path fill="none" stroke="black" d="M25.31,-359.77C24.21,-341.2 24.56,-311.2 35,-288 40.65,-275.44 50.54,-263.98 60.04,-254.95"/>
<polygon fill="black" stroke="black" points="62.39,-257.54 67.49,-248.25 57.71,-252.34 62.39,-257.54"/>
</g>
<!-- rhn&#45;&gt;hfx -->
<g id="edge7" class="edge">
<title>rhn&#45;&gt;hfx</title>
<path fill="none" stroke="black" d="M26.59,-359.82C26.37,-349.44 26.11,-335.96 26,-324 25.85,-308 23.53,-303.81 26,-288 31.5,-252.78 45.21,-213.92 55.05,-189.03"/>
<polygon fill="black" stroke="black" points="58.37,-190.16 58.86,-179.58 51.88,-187.54 58.37,-190.16"/>
</g>
<!-- bvb -->
<g id="node10" class="node">
<title>bvb</title>
<ellipse fill="#ccffff" stroke="black" cx="66" cy="-306" rx="27.9" ry="18"/>
<text text-anchor="middle" x="66" y="-302.3" font-family="Times,serif" font-size="14.00">bvb</text>
</g>
<!-- rhn&#45;&gt;bvb -->
<g id="edge6" class="edge">
<title>rhn&#45;&gt;bvb</title>
<path fill="none" stroke="black" d="M36.05,-360.76C40.82,-352.19 46.78,-341.49 52.13,-331.9"/>
<polygon fill="black" stroke="black" points="55.19,-333.59 57,-323.15 49.08,-330.18 55.19,-333.59"/>
</g>
<!-- bvb&#45;&gt;xhk -->
<g id="edge8" class="edge">
<title>bvb&#45;&gt;xhk</title>
<path fill="none" stroke="black" d="M70.6,-288.05C72.75,-280.14 75.35,-270.54 77.76,-261.69"/>
<polygon fill="black" stroke="black" points="81.2,-262.36 80.44,-251.79 74.45,-260.52 81.2,-262.36"/>
</g>
<!-- bvb&#45;&gt;hfx -->
<g id="edge9" class="edge">
<title>bvb&#45;&gt;hfx</title>
<path fill="none" stroke="black" d="M61.54,-287.95C59.06,-277.63 56.25,-264.15 55,-252 53.37,-236.08 53.37,-231.92 55,-216 55.88,-207.46 57.53,-198.26 59.29,-189.96"/>
<polygon fill="black" stroke="black" points="62.74,-190.57 61.54,-180.05 55.92,-189.03 62.74,-190.57"/>
</g>
<!-- nvd -->
<g id="node12" class="node">
<title>nvd</title>
<ellipse fill="#ccffff" stroke="black" cx="329" cy="-90" rx="27.9" ry="18"/>
<text text-anchor="middle" x="329" y="-86.3" font-family="Times,serif" font-size="14.00">nvd</text>
</g>
<!-- qnr&#45;&gt;nvd -->
<g id="edge10" class="edge">
<title>qnr&#45;&gt;nvd</title>
<path fill="none" stroke="black" d="M329,-143.7C329,-135.98 329,-126.71 329,-118.11"/>
<polygon fill="black" stroke="black" points="332.5,-118.1 329,-108.1 325.5,-118.1 332.5,-118.1"/>
</g>
<!-- nvd&#45;&gt;lhk -->
<g id="edge15" class="edge">
<title>nvd&#45;&gt;lhk</title>
<path fill="none" stroke="black" d="M319.95,-72.76C315.18,-64.19 309.22,-53.49 303.87,-43.9"/>
<polygon fill="black" stroke="black" points="306.92,-42.18 299,-35.15 300.81,-45.59 306.92,-42.18"/>
</g>
<!-- ntq -->
<g id="node13" class="node">
<title>ntq</title>
<ellipse fill="#ccffff" stroke="black" cx="124" cy="-378" rx="27" ry="18"/>
<text text-anchor="middle" x="124" y="-374.3" font-family="Times,serif" font-size="14.00">ntq</text>
</g>
<!-- ntq&#45;&gt;jqt -->
<g id="edge11" class="edge">
<title>ntq&#45;&gt;jqt</title>
<path fill="none" stroke="black" d="M128.6,-360.05C130.75,-352.14 133.35,-342.54 135.76,-333.69"/>
<polygon fill="black" stroke="black" points="139.2,-334.36 138.44,-323.79 132.45,-332.52 139.2,-334.36"/>
</g>
<!-- ntq&#45;&gt;xhk -->
<g id="edge14" class="edge">
<title>ntq&#45;&gt;xhk</title>
<path fill="none" stroke="black" d="M119.37,-360.15C112.69,-335.81 100.26,-290.57 92.32,-261.67"/>
<polygon fill="black" stroke="black" points="95.64,-260.54 89.62,-251.82 88.89,-262.39 95.64,-260.54"/>
</g>
<!-- ntq&#45;&gt;hfx -->
<g id="edge12" class="edge">
<title>ntq&#45;&gt;hfx</title>
<path fill="none" stroke="black" d="M141.62,-363.86C152.95,-354.25 166.7,-340.1 173,-324 178.83,-309.1 178.26,-303.11 173,-288 157.58,-243.69 117.91,-204.79 91.45,-182.59"/>
<polygon fill="black" stroke="black" points="93.33,-179.61 83.37,-175.99 88.9,-185.03 93.33,-179.61"/>
</g>
<!-- ntq&#45;&gt;bvb -->
<g id="edge13" class="edge">
<title>ntq&#45;&gt;bvb</title>
<path fill="none" stroke="black" d="M111.41,-361.81C103.74,-352.55 93.77,-340.52 85.14,-330.09"/>
<polygon fill="black" stroke="black" points="87.64,-327.63 78.56,-322.16 82.25,-332.09 87.64,-327.63"/>
</g>
<!-- rzs -->
<g id="node15" class="node">
<title>rzs</title>
<ellipse fill="#ccffff" stroke="black" cx="273" cy="-378" rx="27" ry="18"/>
<text text-anchor="middle" x="273" y="-374.3" font-family="Times,serif" font-size="14.00">rzs</text>
</g>
<!-- rzs&#45;&gt;rsh -->
<g id="edge20" class="edge">
<title>rzs&#45;&gt;rsh</title>
<path fill="none" stroke="black" d="M265.42,-360.41C261.63,-352.13 256.97,-341.92 252.73,-332.66"/>
<polygon fill="black" stroke="black" points="255.87,-331.11 248.53,-323.47 249.5,-334.02 255.87,-331.11"/>
</g>
<!-- rzs&#45;&gt;lsr -->
<g id="edge19" class="edge">
<title>rzs&#45;&gt;lsr</title>
<path fill="none" stroke="black" d="M252.68,-366.08C238.08,-356.97 219.53,-342.52 211,-324 190.9,-280.37 202.66,-222.97 212.61,-189.81"/>
<polygon fill="black" stroke="black" points="216.06,-190.54 215.74,-179.95 209.38,-188.42 216.06,-190.54"/>
</g>
<!-- rzs&#45;&gt;cmg -->
<g id="edge18" class="edge">
<title>rzs&#45;&gt;cmg</title>
<path fill="none" stroke="black" d="M280.82,-360.41C284.72,-352.13 289.54,-341.92 293.9,-332.66"/>
<polygon fill="black" stroke="black" points="297.14,-334.01 298.24,-323.47 290.81,-331.02 297.14,-334.01"/>
</g>
<!-- rzs&#45;&gt;qnr -->
<g id="edge17" class="edge">
<title>rzs&#45;&gt;qnr</title>
<path fill="none" stroke="black" d="M294.25,-366.85C310.1,-357.99 330.57,-343.49 340,-324 361.04,-280.54 348.76,-222.62 338.49,-189.42"/>
<polygon fill="black" stroke="black" points="341.71,-187.97 335.28,-179.55 335.05,-190.14 341.71,-187.97"/>
</g>
</g>
</svg>
