<svg xmlns="http://www.w3.org/2000/svg" xmlns:xlink="http://www.w3.org/1999/xlink" class="plot-d6a7b5" fill="currentColor" font-family="system-ui, sans-serif" font-size="10" text-anchor="middle" width="790" height="640" viewBox="0 0 790 640" style="color: white; background-color: black;"><style>:where(.plot-d6a7b5) {
  --plot-background: white;
  display: block;
  height: auto;
  height: intrinsic;
  max-width: 100%;
}
:where(.plot-d6a7b5 text),
:where(.plot-d6a7b5 tspan) {
  white-space: pre;
}</style><g aria-label="y-grid" aria-hidden="true" stroke="currentColor" stroke-opacity="0.1" transform="translate(0,36.5)"><line x1="100" x2="740" y1="23" y2="23"/><line x1="100" x2="740" y1="96" y2="96"/><line x1="100" x2="740" y1="169" y2="169"/><line x1="100" x2="740" y1="242" y2="242"/><line x1="100" x2="740" y1="315" y2="315"/><line x1="100" x2="740" y1="388" y2="388"/><line x1="100" x2="740" y1="461" y2="461"/><line x1="100" x2="740" y1="534" y2="534"/></g><g aria-label="y-axis tick" aria-hidden="true" fill="none" stroke="currentColor" transform="translate(0,36.5)"><path transform="translate(100,23)" d="M0,0L-6,0"/><path transform="translate(100,96)" d="M0,0L-6,0"/><path transform="translate(100,169)" d="M0,0L-6,0"/><path transform="translate(100,242)" d="M0,0L-6,0"/><path transform="translate(100,315)" d="M0,0L-6,0"/><path transform="translate(100,388)" d="M0,0L-6,0"/><path transform="translate(100,461)" d="M0,0L-6,0"/><path transform="translate(100,534)" d="M0,0L-6,0"/></g><g aria-label="y-axis tick label" text-anchor="end" transform="translate(-9,36.5)"><text y="0.32em" transform="translate(100,23)">seed</text><text y="0.32em" transform="translate(100,96)">soil</text><text y="0.32em" transform="translate(100,169)">fertilizer</text><text y="0.32em" transform="translate(100,242)">water</text><text y="0.32em" transform="translate(100,315)">light</text><text y="0.32em" transform="translate(100,388)">temperature</text><text y="0.32em" transform="translate(100,461)">humidity</text><text y="0.32em" transform="translate(100,534)">location</text></g><g aria-label="y-axis label" transform="translate(-97,0)"><text y="0.71em" transform="translate(100,315) rotate(-90)">Category</text></g><g aria-label="x-grid" aria-hidden="true" stroke="currentColor" stroke-opacity="0.1"><line x1="100" x2="100" y1="20" y2="610"/><line x1="164" x2="164" y1="20" y2="610"/><line x1="228" x2="228" y1="20" y2="610"/><line x1="292" x2="292" y1="20" y2="610"/><line x1="356" x2="356" y1="20" y2="610"/><line x1="420" x2="420" y1="20" y2="610"/><line x1="484" x2="484" y1="20" y2="610"/><line x1="548" x2="548" y1="20" y2="610"/><line x1="612" x2="612" y1="20" y2="610"/><line x1="676" x2="676" y1="20" y2="610"/><line x1="740" x2="740" y1="20" y2="610"/></g><g aria-label="x-axis tick" aria-hidden="true" fill="none" stroke="currentColor"><path transform="translate(100,610)" d="M0,0L0,6"/><path transform="translate(164,610)" d="M0,0L0,6"/><path transform="translate(228,610)" d="M0,0L0,6"/><path transform="translate(292,610)" d="M0,0L0,6"/><path transform="translate(356,610)" d="M0,0L0,6"/><path transform="translate(420,610)" d="M0,0L0,6"/><path transform="translate(484,610)" d="M0,0L0,6"/><path transform="translate(548,610)" d="M0,0L0,6"/><path transform="translate(612,610)" d="M0,0L0,6"/><path transform="translate(676,610)" d="M0,0L0,6"/><path transform="translate(740,610)" d="M0,0L0,6"/></g><g aria-label="x-axis tick label" font-variant="tabular-nums" transform="translate(0,9)"><text y="0.71em" transform="translate(100,610)">0</text><text y="0.71em" transform="translate(164,610)">10</text><text y="0.71em" transform="translate(228,610)">20</text><text y="0.71em" transform="translate(292,610)">30</text><text y="0.71em" transform="translate(356,610)">40</text><text y="0.71em" transform="translate(420,610)">50</text><text y="0.71em" transform="translate(484,610)">60</text><text y="0.71em" transform="translate(548,610)">70</text><text y="0.71em" transform="translate(612,610)">80</text><text y="0.71em" transform="translate(676,610)">90</text><text y="0.71em" transform="translate(740,610)">100</text></g><g aria-label="x-axis label" text-anchor="end" transform="translate(47,27)"><text transform="translate(740,610)">Identifier number →</text></g><g aria-label="rule" stroke="white" transform="translate(0,36.5)"><line x1="100" x2="740" y1="23" y2="23"/><line x1="100" x2="740" y1="96" y2="96"/><line x1="100" x2="740" y1="169" y2="169"/><line x1="100" x2="740" y1="242" y2="242"/><line x1="100" x2="740" y1="315" y2="315"/><line x1="100" x2="740" y1="388" y2="388"/><line x1="100" x2="740" y1="461" y2="461"/><line x1="100" x2="740" y1="534" y2="534"/></g><g aria-label="link" fill="none" stroke="currentColor" stroke-width="2" stroke-opacity="0.4" stroke-miterlimit="1" transform="translate(0,36.5)"><path d="M727.2,23C727.2,59.5,420,59.5,420,96"/><path d="M740,23C740,59.5,432.8,59.5,432.8,96"/><path d="M420,23C420,59.5,432.8,59.5,432.8,96"/><path d="M727.2,23C727.2,59.5,740,59.5,740,96"/><path d="M196,96C196,132.5,100,132.5,100,169"/><path d="M432.8,96C432.8,132.5,336.8,132.5,336.8,169"/><path d="M432.8,96C432.8,132.5,336.8,132.5,336.8,169"/><path d="M445.6,96C445.6,132.5,349.6,132.5,349.6,169"/><path d="M100,96C100,132.5,349.6,132.5,349.6,169"/><path d="M196,96C196,132.5,445.6,132.5,445.6,169"/><path d="M439.2,169C439.2,205.5,413.6,205.5,413.6,242"/><path d="M490.4,169C490.4,205.5,464.8,205.5,464.8,242"/><path d="M170.4,169C170.4,205.5,100,205.5,100,242"/><path d="M439.2,169C439.2,205.5,368.8,205.5,368.8,242"/><path d="M100,169C100,205.5,368.8,205.5,368.8,242"/><path d="M144.8,169C144.8,205.5,413.6,205.5,413.6,242"/><path d="M144.8,169C144.8,205.5,464.8,205.5,464.8,242"/><path d="M170.4,169C170.4,205.5,490.4,205.5,490.4,242"/><path d="M215.2,242C215.2,278.5,663.2,278.5,663.2,315"/><path d="M260,242C260,278.5,708,278.5,708,315"/><path d="M260,242C260,278.5,215.2,278.5,215.2,315"/><path d="M708,242C708,278.5,663.2,278.5,663.2,315"/><path d="M592.8,315C592.8,351.5,388,351.5,388,388"/><path d="M740,315C740,351.5,535.2,351.5,535.2,388"/><path d="M388,315C388,351.5,618.4,351.5,618.4,388"/><path d="M509.6,315C509.6,351.5,740,351.5,740,388"/><path d="M509.6,315C509.6,351.5,535.2,351.5,535.2,388"/><path d="M592.8,315C592.8,351.5,618.4,351.5,618.4,388"/><path d="M541.6,388C541.6,424.5,100,424.5,100,461"/><path d="M548,388C548,424.5,106.4,424.5,106.4,461"/><path d="M100,388C100,424.5,106.4,424.5,106.4,461"/><path d="M541.6,388C541.6,424.5,548,424.5,548,461"/><path d="M458.4,461C458.4,497.5,484,497.5,484,534"/><path d="M695.2,461C695.2,497.5,720.8,497.5,720.8,534"/><path d="M695.2,461C695.2,497.5,458.4,497.5,458.4,534"/><path d="M720.8,461C720.8,497.5,484,497.5,484,534"/></g><g aria-label="link" fill="none" stroke="red" stroke-width="2" stroke-miterlimit="1" transform="translate(0,36.5)"><path d="M733.6,23C733.6,59.5,426.4,59.5,426.4,96"/><path d="M573.6,23C573.6,59.5,586.4,59.5,586.4,96"/><path d="M314.4,96C314.4,132.5,218.4,132.5,218.4,169"/><path d="M439.2,96C439.2,132.5,343.2,132.5,343.2,169"/><path d="M148,96C148,132.5,397.6,132.5,397.6,169"/><path d="M464.8,169C464.8,205.5,439.2,205.5,439.2,242"/><path d="M304.8,169C304.8,205.5,234.4,205.5,234.4,242"/><path d="M122.4,169C122.4,205.5,391.2,205.5,391.2,242"/><path d="M157.6,169C157.6,205.5,477.6,205.5,477.6,242"/><path d="M237.6,242C237.6,278.5,685.6,278.5,685.6,315"/><path d="M484,242C484,278.5,439.2,278.5,439.2,315"/><path d="M666.4,315C666.4,351.5,461.6,351.5,461.6,388"/><path d="M448.8,315C448.8,351.5,679.2,351.5,679.2,388"/><path d="M551.2,315C551.2,351.5,576.8,351.5,576.8,388"/><path d="M544.8,388C544.8,424.5,103.2,424.5,103.2,461"/><path d="M320.8,388C320.8,424.5,327.2,424.5,327.2,461"/><path d="M576.8,461C576.8,497.5,602.4,497.5,602.4,534"/><path d="M708,461C708,497.5,471.2,497.5,471.2,534"/></g></svg>
