<?xml version="1.0" encoding="UTF-8" standalone="no"?>
<!DOCTYPE svg PUBLIC "-//W3C//DTD SVG 1.1//EN"
 "http://www.w3.org/Graphics/SVG/1.1/DTD/svg11.dtd">
<!-- Generated by graphviz version 2.43.0 (0)
 -->
<!-- Title: %3 Pages: 1 -->
<svg width="142pt" height="260pt"
 viewBox="0.00 0.00 142.49 260.00" xmlns="http://www.w3.org/2000/svg" xmlns:xlink="http://www.w3.org/1999/xlink">
<g id="graph0" class="graph" transform="scale(1 1) rotate(0) translate(4 256)">
<title>%3</title>
<polygon fill="white" stroke="transparent" points="-4,4 -4,-256 138.49,-256 138.49,4 -4,4"/>
<!-- 11A -->
<g id="node1" class="node">
<title>11A</title>
<ellipse fill="#ffccff" stroke="black" cx="29.25" cy="-234" rx="28.7" ry="18"/>
<text text-anchor="middle" x="29.25" y="-230.3" font-family="Times,serif" font-size="14.00">11A</text>
</g>
<!-- 11B -->
<g id="node2" class="node">
<title>11B</title>
<ellipse fill="white" stroke="black" cx="29.25" cy="-162" rx="29.5" ry="18"/>
<text text-anchor="middle" x="29.25" y="-158.3" font-family="Times,serif" font-size="14.00">11B</text>
</g>
<!-- 11A&#45;&gt;11B -->
<g id="edge1" class="edge">
<title>11A&#45;&gt;11B</title>
<path fill="none" stroke="black" d="M29.25,-215.7C29.25,-207.98 29.25,-198.71 29.25,-190.11"/>
<polygon fill="black" stroke="black" points="32.75,-190.1 29.25,-180.1 25.75,-190.1 32.75,-190.1"/>
</g>
<!-- 11Z -->
<g id="node3" class="node">
<title>11Z</title>
<ellipse fill="#ccffff" stroke="black" cx="29.25" cy="-90" rx="28.7" ry="18"/>
<text text-anchor="middle" x="29.25" y="-86.3" font-family="Times,serif" font-size="14.00">11Z</text>
</g>
<!-- 11B&#45;&gt;11Z -->
<g id="edge2" class="edge">
<title>11B&#45;&gt;11Z</title>
<path fill="none" stroke="black" d="M29.25,-143.7C29.25,-135.98 29.25,-126.71 29.25,-118.11"/>
<polygon fill="black" stroke="black" points="32.75,-118.1 29.25,-108.1 25.75,-118.1 32.75,-118.1"/>
</g>
<!-- 22A -->
<g id="node4" class="node">
<title>22A</title>
<ellipse fill="#ffccff" stroke="black" cx="105.25" cy="-234" rx="28.7" ry="18"/>
<text text-anchor="middle" x="105.25" y="-230.3" font-family="Times,serif" font-size="14.00">22A</text>
</g>
<!-- 22B -->
<g id="node5" class="node">
<title>22B</title>
<ellipse fill="white" stroke="black" cx="105.25" cy="-162" rx="29.5" ry="18"/>
<text text-anchor="middle" x="105.25" y="-158.3" font-family="Times,serif" font-size="14.00">22B</text>
</g>
<!-- 22A&#45;&gt;22B -->
<g id="edge3" class="edge">
<title>22A&#45;&gt;22B</title>
<path fill="none" stroke="black" d="M105.25,-215.7C105.25,-207.98 105.25,-198.71 105.25,-190.11"/>
<polygon fill="black" stroke="black" points="108.75,-190.1 105.25,-180.1 101.75,-190.1 108.75,-190.1"/>
</g>
<!-- 22C -->
<g id="node6" class="node">
<title>22C</title>
<ellipse fill="white" stroke="black" cx="105.25" cy="-90" rx="29.5" ry="18"/>
<text text-anchor="middle" x="105.25" y="-86.3" font-family="Times,serif" font-size="14.00">22C</text>
</g>
<!-- 22B&#45;&gt;22C -->
<g id="edge4" class="edge">
<title>22B&#45;&gt;22C</title>
<path fill="none" stroke="black" d="M105.25,-143.7C105.25,-135.98 105.25,-126.71 105.25,-118.11"/>
<polygon fill="black" stroke="black" points="108.75,-118.1 105.25,-108.1 101.75,-118.1 108.75,-118.1"/>
</g>
<!-- 22Z -->
<g id="node7" class="node">
<title>22Z</title>
<ellipse fill="#ccffff" stroke="black" cx="105.25" cy="-18" rx="28.7" ry="18"/>
<text text-anchor="middle" x="105.25" y="-14.3" font-family="Times,serif" font-size="14.00">22Z</text>
</g>
<!-- 22C&#45;&gt;22Z -->
<g id="edge5" class="edge">
<title>22C&#45;&gt;22Z</title>
<path fill="none" stroke="black" d="M105.25,-71.7C105.25,-63.98 105.25,-54.71 105.25,-46.11"/>
<polygon fill="black" stroke="black" points="108.75,-46.1 105.25,-36.1 101.75,-46.1 108.75,-46.1"/>
</g>
</g>
</svg>
