<?xml version="1.0" encoding="UTF-8" standalone="no"?>
<!DOCTYPE svg PUBLIC "-//W3C//DTD SVG 1.1//EN"
 "http://www.w3.org/Graphics/SVG/1.1/DTD/svg11.dtd">
<!-- Generated by graphviz version 2.43.0 (0)
 -->
<!-- Title: %3 Pages: 1 -->
<svg width="362pt" height="959pt"
 viewBox="0.00 0.00 362.10 959.14" xmlns="http://www.w3.org/2000/svg" xmlns:xlink="http://www.w3.org/1999/xlink">
<g id="graph0" class="graph" transform="scale(1 1) rotate(0) translate(4 955.14)">
<title>%3</title>
<polygon fill="white" stroke="transparent" points="-4,4 -4,-955.14 358.1,-955.14 358.1,4 -4,4"/>
<!-- 14
(1, 2) -->
<g id="node1" class="node">
<title>14
(1, 2)</title>
<ellipse fill="#ccffff" stroke="black" cx="179.55" cy="-924.27" rx="38.37" ry="26.74"/>
<text text-anchor="middle" x="179.55" y="-928.07" font-family="Times,serif" font-size="14.00">14</text>
<text text-anchor="middle" x="179.55" y="-913.07" font-family="Times,serif" font-size="14.00">(1, 2)</text>
</g>
<!-- 2
(6, 4) -->
<g id="node2" class="node">
<title>2
(6, 4)</title>
<ellipse fill="#ccffff" stroke="black" cx="179.55" cy="-834.53" rx="38.37" ry="26.74"/>
<text text-anchor="middle" x="179.55" y="-838.33" font-family="Times,serif" font-size="14.00">2</text>
<text text-anchor="middle" x="179.55" y="-823.33" font-family="Times,serif" font-size="14.00">(6, 4)</text>
</g>
<!-- 14
(1, 2)&#45;&gt;2
(6, 4) -->
<g id="edge1" class="edge">
<title>14
(1, 2)&#45;&gt;2
(6, 4)</title>
<path fill="none" stroke="black" d="M179.55,-896.95C179.55,-888.98 179.55,-880.09 179.55,-871.6"/>
<polygon fill="black" stroke="black" points="183.05,-871.54 179.55,-861.54 176.05,-871.54 183.05,-871.54"/>
</g>
<!-- 20
(6, 6) -->
<g id="node3" class="node">
<title>20
(6, 6)</title>
<ellipse fill="#ccffff" stroke="black" cx="132.55" cy="-744.79" rx="38.37" ry="26.74"/>
<text text-anchor="middle" x="132.55" y="-748.59" font-family="Times,serif" font-size="14.00">20</text>
<text text-anchor="middle" x="132.55" y="-733.59" font-family="Times,serif" font-size="14.00">(6, 6)</text>
</g>
<!-- 2
(6, 4)&#45;&gt;20
(6, 6) -->
<g id="edge2" class="edge">
<title>2
(6, 4)&#45;&gt;20
(6, 6)</title>
<path fill="none" stroke="black" d="M166.46,-809.09C161.46,-799.77 155.69,-788.99 150.33,-778.99"/>
<polygon fill="black" stroke="black" points="153.38,-777.26 145.57,-770.1 147.21,-780.57 153.38,-777.26"/>
</g>
<!-- 20
(8, 4) -->
<g id="node4" class="node">
<title>20
(8, 4)</title>
<ellipse fill="#ccffff" stroke="black" cx="229.55" cy="-744.79" rx="38.37" ry="26.74"/>
<text text-anchor="middle" x="229.55" y="-748.59" font-family="Times,serif" font-size="14.00">20</text>
<text text-anchor="middle" x="229.55" y="-733.59" font-family="Times,serif" font-size="14.00">(8, 4)</text>
</g>
<!-- 2
(6, 4)&#45;&gt;20
(8, 4) -->
<g id="edge3" class="edge">
<title>2
(6, 4)&#45;&gt;20
(8, 4)</title>
<path fill="none" stroke="black" d="M193.48,-809.09C198.79,-799.77 204.93,-788.99 210.63,-778.99"/>
<polygon fill="black" stroke="black" points="213.78,-780.52 215.69,-770.1 207.7,-777.06 213.78,-780.52"/>
</g>
<!-- 2
(4, 12) -->
<g id="node5" class="node">
<title>2
(4, 12)</title>
<ellipse fill="#ccffff" stroke="black" cx="126.55" cy="-655.05" rx="44.6" ry="26.74"/>
<text text-anchor="middle" x="126.55" y="-658.85" font-family="Times,serif" font-size="14.00">2</text>
<text text-anchor="middle" x="126.55" y="-643.85" font-family="Times,serif" font-size="14.00">(4, 12)</text>
</g>
<!-- 20
(6, 6)&#45;&gt;2
(4, 12) -->
<g id="edge4" class="edge">
<title>20
(6, 6)&#45;&gt;2
(4, 12)</title>
<path fill="none" stroke="black" d="M130.78,-717.94C130.23,-709.89 129.61,-700.86 129.02,-692.24"/>
<polygon fill="black" stroke="black" points="132.5,-691.76 128.32,-682.02 125.51,-692.24 132.5,-691.76"/>
</g>
<!-- 2
(14, 6) -->
<g id="node6" class="node">
<title>2
(14, 6)</title>
<ellipse fill="#ccffff" stroke="black" cx="233.55" cy="-655.05" rx="44.6" ry="26.74"/>
<text text-anchor="middle" x="233.55" y="-658.85" font-family="Times,serif" font-size="14.00">2</text>
<text text-anchor="middle" x="233.55" y="-643.85" font-family="Times,serif" font-size="14.00">(14, 6)</text>
</g>
<!-- 20
(8, 4)&#45;&gt;2
(14, 6) -->
<g id="edge5" class="edge">
<title>20
(8, 4)&#45;&gt;2
(14, 6)</title>
<path fill="none" stroke="black" d="M230.75,-717.47C231.11,-709.5 231.52,-700.61 231.9,-692.12"/>
<polygon fill="black" stroke="black" points="235.4,-692.2 232.36,-682.05 228.41,-691.89 235.4,-692.2"/>
</g>
<!-- 28
(4, 14) -->
<g id="node7" class="node">
<title>28
(4, 14)</title>
<ellipse fill="#ccffff" stroke="black" cx="44.55" cy="-475.57" rx="44.6" ry="26.74"/>
<text text-anchor="middle" x="44.55" y="-479.37" font-family="Times,serif" font-size="14.00">28</text>
<text text-anchor="middle" x="44.55" y="-464.37" font-family="Times,serif" font-size="14.00">(4, 14)</text>
</g>
<!-- 2
(4, 12)&#45;&gt;28
(4, 14) -->
<g id="edge6" class="edge">
<title>2
(4, 12)&#45;&gt;28
(4, 14)</title>
<path fill="none" stroke="black" d="M102.86,-632.24C92.15,-621.19 80.22,-607 72.55,-592.18 59.65,-567.26 52.55,-536.22 48.74,-512.58"/>
<polygon fill="black" stroke="black" points="52.19,-511.99 47.25,-502.61 45.26,-513.02 52.19,-511.99"/>
</g>
<!-- 22
(6, 12) -->
<g id="node8" class="node">
<title>22
(6, 12)</title>
<ellipse fill="#ccffff" stroke="black" cx="126.55" cy="-565.31" rx="44.6" ry="26.74"/>
<text text-anchor="middle" x="126.55" y="-569.11" font-family="Times,serif" font-size="14.00">22</text>
<text text-anchor="middle" x="126.55" y="-554.11" font-family="Times,serif" font-size="14.00">(6, 12)</text>
</g>
<!-- 2
(4, 12)&#45;&gt;22
(6, 12) -->
<g id="edge7" class="edge">
<title>2
(4, 12)&#45;&gt;22
(6, 12)</title>
<path fill="none" stroke="black" d="M126.55,-627.73C126.55,-619.76 126.55,-610.87 126.55,-602.38"/>
<polygon fill="black" stroke="black" points="130.05,-602.31 126.55,-592.31 123.05,-602.31 130.05,-602.31"/>
</g>
<!-- 10
(14, 8) -->
<g id="node9" class="node">
<title>10
(14, 8)</title>
<ellipse fill="#ccffff" stroke="black" cx="233.55" cy="-565.31" rx="44.6" ry="26.74"/>
<text text-anchor="middle" x="233.55" y="-569.11" font-family="Times,serif" font-size="14.00">10</text>
<text text-anchor="middle" x="233.55" y="-554.11" font-family="Times,serif" font-size="14.00">(14, 8)</text>
</g>
<!-- 2
(14, 6)&#45;&gt;10
(14, 8) -->
<g id="edge8" class="edge">
<title>2
(14, 6)&#45;&gt;10
(14, 8)</title>
<path fill="none" stroke="black" d="M233.55,-627.73C233.55,-619.76 233.55,-610.87 233.55,-602.38"/>
<polygon fill="black" stroke="black" points="237.05,-602.31 233.55,-592.31 230.05,-602.31 237.05,-602.31"/>
</g>
<!-- 36
(16, 6) -->
<g id="node10" class="node">
<title>36
(16, 6)</title>
<ellipse fill="#ccffff" stroke="black" cx="309.55" cy="-475.57" rx="44.6" ry="26.74"/>
<text text-anchor="middle" x="309.55" y="-479.37" font-family="Times,serif" font-size="14.00">36</text>
<text text-anchor="middle" x="309.55" y="-464.37" font-family="Times,serif" font-size="14.00">(16, 6)</text>
</g>
<!-- 2
(14, 6)&#45;&gt;36
(16, 6) -->
<g id="edge9" class="edge">
<title>2
(14, 6)&#45;&gt;36
(16, 6)</title>
<path fill="none" stroke="black" d="M257.57,-632.4C268.34,-621.39 280.25,-607.18 287.55,-592.18 299.64,-567.33 305.1,-536.46 307.55,-512.87"/>
<polygon fill="black" stroke="black" points="311.07,-512.87 308.48,-502.59 304.1,-512.23 311.07,-512.87"/>
</g>
<!-- 2
(12, 22) -->
<g id="node11" class="node">
<title>2
(12, 22)</title>
<ellipse fill="#ccffff" stroke="black" cx="111.55" cy="-296.09" rx="50.82" ry="26.74"/>
<text text-anchor="middle" x="111.55" y="-299.89" font-family="Times,serif" font-size="14.00">2</text>
<text text-anchor="middle" x="111.55" y="-284.89" font-family="Times,serif" font-size="14.00">(12, 22)</text>
</g>
<!-- 28
(4, 14)&#45;&gt;2
(12, 22) -->
<g id="edge10" class="edge">
<title>28
(4, 14)&#45;&gt;2
(12, 22)</title>
<path fill="none" stroke="black" d="M41.12,-448.57C39.06,-424.31 38.89,-387.66 51.55,-358.96 57.03,-346.52 66.18,-335.12 75.7,-325.59"/>
<polygon fill="black" stroke="black" points="78.14,-328.09 83,-318.67 73.33,-323.01 78.14,-328.09"/>
</g>
<!-- 2
(14, 14) -->
<g id="node12" class="node">
<title>2
(14, 14)</title>
<ellipse fill="#ccffff" stroke="black" cx="177.55" cy="-475.57" rx="50.82" ry="26.74"/>
<text text-anchor="middle" x="177.55" y="-479.37" font-family="Times,serif" font-size="14.00">2</text>
<text text-anchor="middle" x="177.55" y="-464.37" font-family="Times,serif" font-size="14.00">(14, 14)</text>
</g>
<!-- 22
(6, 12)&#45;&gt;2
(14, 14) -->
<g id="edge11" class="edge">
<title>22
(6, 12)&#45;&gt;2
(14, 14)</title>
<path fill="none" stroke="black" d="M141.03,-539.4C146.3,-530.33 152.36,-519.91 158,-510.2"/>
<polygon fill="black" stroke="black" points="161.03,-511.95 163.03,-501.54 154.98,-508.43 161.03,-511.95"/>
</g>
<!-- 10
(14, 8)&#45;&gt;2
(14, 14) -->
<g id="edge12" class="edge">
<title>10
(14, 8)&#45;&gt;2
(14, 14)</title>
<path fill="none" stroke="black" d="M217.95,-539.87C211.99,-530.54 205.1,-519.73 198.71,-509.72"/>
<polygon fill="black" stroke="black" points="201.59,-507.73 193.26,-501.18 195.69,-511.5 201.59,-507.73"/>
</g>
<!-- 2
(20, 14) -->
<g id="node13" class="node">
<title>2
(20, 14)</title>
<ellipse fill="#ccffff" stroke="black" cx="231.55" cy="-296.09" rx="50.82" ry="26.74"/>
<text text-anchor="middle" x="231.55" y="-299.89" font-family="Times,serif" font-size="14.00">2</text>
<text text-anchor="middle" x="231.55" y="-284.89" font-family="Times,serif" font-size="14.00">(20, 14)</text>
</g>
<!-- 36
(16, 6)&#45;&gt;2
(20, 14) -->
<g id="edge13" class="edge">
<title>36
(16, 6)&#45;&gt;2
(20, 14)</title>
<path fill="none" stroke="black" d="M309.92,-448.41C309.27,-424.05 305.68,-387.32 291.55,-358.96 285.43,-346.69 276.01,-335.27 266.42,-325.68"/>
<polygon fill="black" stroke="black" points="268.77,-323.08 259.12,-318.71 263.94,-328.14 268.77,-323.08"/>
</g>
<!-- 8
(14, 22) -->
<g id="node14" class="node">
<title>8
(14, 22)</title>
<ellipse fill="#ccffff" stroke="black" cx="111.55" cy="-206.35" rx="50.82" ry="26.74"/>
<text text-anchor="middle" x="111.55" y="-210.15" font-family="Times,serif" font-size="14.00">8</text>
<text text-anchor="middle" x="111.55" y="-195.15" font-family="Times,serif" font-size="14.00">(14, 22)</text>
</g>
<!-- 2
(12, 22)&#45;&gt;8
(14, 22) -->
<g id="edge14" class="edge">
<title>2
(12, 22)&#45;&gt;8
(14, 22)</title>
<path fill="none" stroke="black" d="M111.55,-268.77C111.55,-260.8 111.55,-251.91 111.55,-243.42"/>
<polygon fill="black" stroke="black" points="115.05,-243.35 111.55,-233.35 108.05,-243.35 115.05,-243.35"/>
</g>
<!-- 16
(14, 16) -->
<g id="node15" class="node">
<title>16
(14, 16)</title>
<ellipse fill="#ccffff" stroke="black" cx="111.55" cy="-385.83" rx="50.82" ry="26.74"/>
<text text-anchor="middle" x="111.55" y="-389.63" font-family="Times,serif" font-size="14.00">16</text>
<text text-anchor="middle" x="111.55" y="-374.63" font-family="Times,serif" font-size="14.00">(14, 16)</text>
</g>
<!-- 2
(14, 14)&#45;&gt;16
(14, 16) -->
<g id="edge15" class="edge">
<title>2
(14, 14)&#45;&gt;16
(14, 16)</title>
<path fill="none" stroke="black" d="M159.16,-450.13C152.01,-440.62 143.71,-429.59 136.06,-419.42"/>
<polygon fill="black" stroke="black" points="138.64,-417.03 129.83,-411.14 133.05,-421.24 138.64,-417.03"/>
</g>
<!-- 8
(16, 14) -->
<g id="node16" class="node">
<title>8
(16, 14)</title>
<ellipse fill="#ccffff" stroke="black" cx="231.55" cy="-385.83" rx="50.82" ry="26.74"/>
<text text-anchor="middle" x="231.55" y="-389.63" font-family="Times,serif" font-size="14.00">8</text>
<text text-anchor="middle" x="231.55" y="-374.63" font-family="Times,serif" font-size="14.00">(16, 14)</text>
</g>
<!-- 2
(14, 14)&#45;&gt;8
(16, 14) -->
<g id="edge16" class="edge">
<title>2
(14, 14)&#45;&gt;8
(16, 14)</title>
<path fill="none" stroke="black" d="M192.88,-449.66C198.51,-440.51 204.99,-429.99 211,-420.21"/>
<polygon fill="black" stroke="black" points="214.11,-421.85 216.37,-411.5 208.14,-418.18 214.11,-421.85"/>
</g>
<!-- 8
(20, 16) -->
<g id="node17" class="node">
<title>8
(20, 16)</title>
<ellipse fill="#ccffff" stroke="black" cx="231.55" cy="-206.35" rx="50.82" ry="26.74"/>
<text text-anchor="middle" x="231.55" y="-210.15" font-family="Times,serif" font-size="14.00">8</text>
<text text-anchor="middle" x="231.55" y="-195.15" font-family="Times,serif" font-size="14.00">(20, 16)</text>
</g>
<!-- 2
(20, 14)&#45;&gt;8
(20, 16) -->
<g id="edge17" class="edge">
<title>2
(20, 14)&#45;&gt;8
(20, 16)</title>
<path fill="none" stroke="black" d="M231.55,-268.77C231.55,-260.8 231.55,-251.91 231.55,-243.42"/>
<polygon fill="black" stroke="black" points="235.05,-243.35 231.55,-233.35 228.05,-243.35 235.05,-243.35"/>
</g>
<!-- 2
(20, 20) -->
<g id="node18" class="node">
<title>2
(20, 20)</title>
<ellipse fill="#ccffff" stroke="black" cx="171.55" cy="-116.61" rx="50.82" ry="26.74"/>
<text text-anchor="middle" x="171.55" y="-120.41" font-family="Times,serif" font-size="14.00">2</text>
<text text-anchor="middle" x="171.55" y="-105.41" font-family="Times,serif" font-size="14.00">(20, 20)</text>
</g>
<!-- 8
(14, 22)&#45;&gt;2
(20, 20) -->
<g id="edge18" class="edge">
<title>8
(14, 22)&#45;&gt;2
(20, 20)</title>
<path fill="none" stroke="black" d="M128.26,-180.91C134.64,-171.58 142.03,-160.77 148.88,-150.76"/>
<polygon fill="black" stroke="black" points="151.96,-152.45 154.72,-142.22 146.18,-148.5 151.96,-152.45"/>
</g>
<!-- 16
(14, 16)&#45;&gt;2
(12, 22) -->
<g id="edge19" class="edge">
<title>16
(14, 16)&#45;&gt;2
(12, 22)</title>
<path fill="none" stroke="black" d="M111.55,-358.51C111.55,-350.54 111.55,-341.65 111.55,-333.16"/>
<polygon fill="black" stroke="black" points="115.05,-333.09 111.55,-323.09 108.05,-333.09 115.05,-333.09"/>
</g>
<!-- 8
(16, 14)&#45;&gt;2
(20, 14) -->
<g id="edge20" class="edge">
<title>8
(16, 14)&#45;&gt;2
(20, 14)</title>
<path fill="none" stroke="black" d="M231.55,-358.51C231.55,-350.54 231.55,-341.65 231.55,-333.16"/>
<polygon fill="black" stroke="black" points="235.05,-333.09 231.55,-323.09 228.05,-333.09 235.05,-333.09"/>
</g>
<!-- 8
(20, 16)&#45;&gt;2
(20, 20) -->
<g id="edge21" class="edge">
<title>8
(20, 16)&#45;&gt;2
(20, 20)</title>
<path fill="none" stroke="black" d="M214.83,-180.91C208.45,-171.58 201.06,-160.77 194.22,-150.76"/>
<polygon fill="black" stroke="black" points="196.91,-148.5 188.38,-142.22 191.14,-152.45 196.91,-148.5"/>
</g>
<!-- 5
(22, 20) -->
<g id="node19" class="node">
<title>5
(22, 20)</title>
<ellipse fill="#ccffff" stroke="black" cx="171.55" cy="-26.87" rx="50.82" ry="26.74"/>
<text text-anchor="middle" x="171.55" y="-30.67" font-family="Times,serif" font-size="14.00">5</text>
<text text-anchor="middle" x="171.55" y="-15.67" font-family="Times,serif" font-size="14.00">(22, 20)</text>
</g>
<!-- 2
(20, 20)&#45;&gt;5
(22, 20) -->
<g id="edge22" class="edge">
<title>2
(20, 20)&#45;&gt;5
(22, 20)</title>
<path fill="none" stroke="black" d="M171.55,-89.29C171.55,-81.32 171.55,-72.43 171.55,-63.94"/>
<polygon fill="black" stroke="black" points="175.05,-63.87 171.55,-53.87 168.05,-63.87 175.05,-63.87"/>
</g>
</g>
</svg>
